# xmcd
#
# Track frame offsets: 
#        150
#        12582
#        26165
#        38842
#        50952
#        55175
#        68117
#        80847
#        95125
#        108725
#        122810
#        137880
#        150917
#        163472
#        176902
#        189185
#        200240
#        211695
#        225045
#        235850
#        248950
#        261612
#        275507
#        287882
#        301362
#        314767
#        328165
#        341540
#
# Disc length: 4733 seconds
#
# Revision: 1
# Processed by: cddbd v1.5.2PL0 Copyright (c) Steve Scherf et al.
# Submitted via: ExactAudioCopy v1.3
#
DISCID=b8127b1c
DTITLE=Merle Travis - Guitar Rags And A Too Fast Past_CD2
DYEAR=1994
DGENRE=Country
TTITLE0=Missouri
TTITLE1=Divorce Me C.O.D.
TTITLE2=A Fool At The Steering Wheel
TTITLE3=Nine Pound Hammer
TTITLE4=Sixteen Tons (false start)
TTITLE5=Sixteen Tons
TTITLE6=Dark As A Dungeon
TTITLE7=Over By Number Nine
TTITLE8=That's All
TTITLE9=John Henry
TTITLE10=Muskrat
TTITLE11=I Am A Pilgrim
TTITLE12=This World Is Not My Home
TTITLE13=The Covered Wagon Rolled Right Along
TTITLE14=Oh Why Did I Ever Leave Montana
TTITLE15=A Little Too Fer
TTITLE16=When Rosie Riccoola Do The Hoola Ma Boola
TTITLE17=Steel Guitar Rag (alt)
TTITLE18=Honey Bunch (alt)
TTITLE19=Sweet Temptation
TTITLE20=Don't Hand Me That Old Line
TTITLE21=Steel Guitar Rag
TTITLE22=Honey Bunch
TTITLE23=So Round! So Firm! So Fully Packed!
TTITLE24=Alimoney Bound
TTITLE25=Follow Thru
TTITLE26=Three Times Seven
TTITLE27=I' Sick And Tired Of You, Little Darling
EXTD=Volume 2 of a 5 Volume Box Set\nRecordings 1946-1947
EXTT0=
EXTT1=
EXTT2=
EXTT3=
EXTT4=
EXTT5=
EXTT6=
EXTT7=
EXTT8=
EXTT9=
EXTT10=
EXTT11=
EXTT12=
EXTT13=With Jonny Mercer
EXTT14=With Jerry Colonna
EXTT15=
EXTT16=With Jerry Colonna
EXTT17=
EXTT18=
EXTT19=
EXTT20=
EXTT21=
EXTT22=
EXTT23=
EXTT24=
EXTT25=
EXTT26=
EXTT27=
PLAYORDER=
